<svg xmlns="http://www.w3.org/2000/svg" enable-background="new 0 0 128 128" viewBox="0 0 128 128"><path fill="#1d75b9" d="M72.3,74.1L72.3,74.1c-1.1-0.7-2.4-1.3-3.5-1.8l-0.3-0.2c-0.7-0.3-1.3-0.6-2-0.9c-0.4-0.2-0.8-0.4-1.3-0.6
		l-0.2-0.1c-1.1-0.5-2.1-1-3.1-1.6c-1.5-0.9-2-3-1.3-5.1c0.4-1.1,1.1-2.4,3.9-2.4c2.1,0,3.5,0.9,4.1,2.7c0.2,0.6,0.3,1.3,0.4,1.9
		l0.2,1h7.5l0-0.3c0.2-2-0.3-4.4-1.3-6.2c-1.5-2.6-4-4.2-7.6-5.1L67,55.3V50h-4.6v5.1L61,55.5c-1.2,0.3-2.2,0.7-3.2,1.1
		c-3.1,1.6-5.1,4.6-5.4,8.2c-0.3,3.5,1.2,6.8,4,8.8c1.5,1.1,3.1,1.8,4.6,2.5c0.7,0.3,1.4,0.6,2,0.9c0.5,0.2,1,0.5,1.4,0.7
		c1,0.5,1.9,0.9,2.8,1.5c1.5,1,2.1,3.1,1.5,5.1c-0.4,1.2-1.3,2.6-3.9,2.6l-0.6,0c-0.3,0-0.6,0-0.9,0c-2.4-0.2-4.1-1.8-4.3-4.2
		l-0.2-1.5h-7.4l0,0.3c-0.6,6,2.8,9.8,10.2,11.6l0.5,0.1v4.8h4.6v-5l1-0.1c0.7-0.1,1.2-0.3,1.8-0.4c4.3-1.3,6.7-4,7.3-8
		C77.3,79.8,75.7,76.2,72.3,74.1z"/><path fill="#2d3e50" d="M99.4,36.4l6.2-6.1c0.5-0.5,0.4-1.3-0.1-1.7l-8.3-6.1c-0.5-0.4-1.3-0.2-1.6,0.4l-4,7.5
		C84.6,26,76.6,23.2,68,22.5v-7.9h7c1.3,0,2.3-1,2.3-2.3V4.7c0-1.3-1-2.3-2.3-2.3H64H53c-1.3,0-2.3,1-2.3,2.3v7.6
		c0,1.3,1,2.3,2.3,2.3h7v7.9c-8.6,0.7-16.6,3.4-23.5,7.8l-4-7.5c-0.3-0.6-1.1-0.8-1.6-0.4l-8.3,6.1C22,29,22,29.8,22.5,30.3l6.2,6.1
		c-10,9.4-16.2,22.7-16.2,37.6c0,28.6,23,51.6,51.6,51.6s51.6-23,51.6-51.6C115.6,59.1,109.4,45.8,99.4,36.4z M98.1,100.4
		c-0.3,0.4-0.6,0.7-0.9,1.1L95,99.4c-1.1-1.1-2.9-1.1-4,0c-0.5,0.5-0.8,1.2-0.8,2c0,0.7,0.3,1.5,0.8,2l2.2,2.2
		c-7.3,6.5-16.6,10.4-26.4,11.1v-3.2c0-1.6-1.2-2.8-2.8-2.8c-1.6,0-2.8,1.2-2.8,2.8v3.2c-9.8-0.6-19.1-4.5-26.4-11.1l2.2-2.2
		c0.5-0.5,0.8-1.3,0.8-2c0-0.7-0.3-1.5-0.8-2c-1.1-1.1-2.9-1.1-4,0l-2.1,2.1c-0.3-0.3-0.6-0.7-0.9-1.1c-5.2-6.7-8.5-14.9-9-23.8h2.5
		c1.5,0,2.8-1.2,2.9-2.7c-0.1-1.5-1.4-2.7-2.9-2.7H21c0.5-9,3.8-17.2,9-23.8c0.3-0.4,0.6-0.7,0.9-1.1l2.1,2.1c1.1,1.1,2.9,1.1,4,0
		c0.5-0.5,0.8-1.2,0.8-2c0-0.7-0.3-1.5-0.8-2l-2.2-2.2c7.3-6.5,16.6-10.4,26.4-11.1v3.2c0,1.6,1.2,2.8,2.8,2.8
		c1.6,0,2.8-1.2,2.8-2.8v-3.2c9.8,0.6,19.1,4.5,26.4,11.1L91,44.6c-0.5,0.5-0.8,1.3-0.8,2c0,0.7,0.3,1.5,0.8,2c1.1,1.1,2.9,1.1,4,0
		l2.1-2.1c0.3,0.3,0.6,0.7,0.9,1.1c5.2,6.7,8.5,14.9,9,23.8h-2.5c-1.5,0-2.8,1.2-2.9,2.7c0.1,1.5,1.4,2.7,2.9,2.7h2.5
		C106.5,85.6,103.2,93.8,98.1,100.4z"/></svg>