<svg xmlns="http://www.w3.org/2000/svg" viewBox="0 0 50 50"><path fill="#656766" d="M27.427 37.974H3.372A2.372 2.372 0 0 0 1 40.346v5.685a2.372 2.372 0 0 0 2.372 2.371h24.055A2.372 2.372 0 0 0 29.8 46.03v-5.684a2.372 2.372 0 0 0-2.372-2.372zm0-13.521H3.372A2.372 2.372 0 0 0 1 26.825v5.685a2.372 2.372 0 0 0 2.372 2.372h24.055A2.372 2.372 0 0 0 29.8 32.51v-5.685a2.372 2.372 0 0 0-2.372-2.372zm0-13.514H3.372A2.372 2.372 0 0 0 1 13.311v5.685a2.372 2.372 0 0 0 2.372 2.372h24.055a2.372 2.372 0 0 0 2.372-2.372v-5.685a2.372 2.372 0 0 0-2.372-2.372z"/><path fill="#4E4C4D" d="M3.545 34.882h23.709v3.092H3.545zM3.545 21.361h23.709v3.092H3.545z"/><circle cx="6.555" cy="16.154" r="2.007" fill="#EC6E62"/><circle cx="12.259" cy="16.154" r="2.007" fill="#85BD57"/><circle cx="6.555" cy="29.667" r="2.007" fill="#EC6E62"/><circle cx="12.259" cy="29.667" r="2.007" fill="#85BD57"/><circle cx="6.555" cy="43.188" r="2.007" fill="#EC6E62"/><circle cx="12.259" cy="43.188" r="2.007" fill="#85BD57"/><path fill="#53B1E2" d="M46.786 5.778C42.285 6.314 38.58 4.96 35.5 2.14a2.034 2.034 0 0 0-2.766 0c-3.08 2.82-6.784 4.174-11.285 3.638a1.986 1.986 0 0 0-2.21 2.078c.952 16.05 10.979 22.004 14.013 23.446a2.004 2.004 0 0 0 1.73 0c3.034-1.442 13.061-7.395 14.013-23.446a1.986 1.986 0 0 0-2.21-2.078z"/><path fill="#22A7D4" d="M34.114 28.386c-2.841-1.445-10.582-6.533-11.785-19.517.342.019.68.029 1.015.029 4.016 0 7.628-1.335 10.774-3.976 3.146 2.64 6.758 3.976 10.773 3.976.335 0 .673-.01 1.014-.029-1.211 12.959-8.991 18.08-11.791 19.517z"/></svg>